<?xml version="1.0" encoding="UTF-8"?>
<svg xmlns="http://www.w3.org/2000/svg" viewBox="0 0 688 800" width="688" height="800">
<path d="M327 0.17C342.33 0.17 357.67 0.17 373 0.17C376.84 2.18 382.12 0.35 386.47 1.03C397.4 2.74 408.52 3.32 419.47 5.03C446.97 9.34 474.08 17.18 500.31 27.19C526.21 37.06 549.86 52.4 571.97 68.53C577.89 72.85 582.76 78.44 588.5 83C596 88.96 603.04 96 609 103.5C613.86 109.61 619.87 114.72 624.47 121.03C630.22 128.92 636.18 136.79 641.47 145.03C646.2 152.41 650.19 160.23 654.84 167.66C659.32 174.8 663.21 183.49 666.19 191.31C667.8 195.55 670.2 199.45 671.81 203.69C674.59 210.97 677.35 218.29 679.81 225.69C681.45 230.6 683.57 235.67 684.81 240.69C685.65 244.06 686.29 248.06 687.83 251C687.83 251.67 687.83 252.33 687.83 253C665.72 259 643.61 265 621.5 271C618.5 267.15 614.72 251.41 612.81 245.69C608.65 233.2 603.07 221.17 597.16 209.34C595.08 205.19 593.31 200.59 590.84 196.66C578.82 177.48 567.67 161.17 551.5 145C547.48 140.98 543.55 135.88 538.97 132.53C531.87 127.35 525.08 121.72 517.97 116.53C512.13 112.27 505.46 108.99 499.34 105.16C493.99 101.8 487.54 99.04 481.69 96.81C476.47 94.82 471.53 92.18 466.31 90.19C445.06 82.08 422.62 77.5 400.47 74.03C398.85 73.78 397.15 74.22 395.53 73.97C391.21 73.29 386.79 72.71 382.47 72.03C378.9 71.47 375.1 72.53 371.53 71.97C359.01 70.01 340.99 70.01 328.47 71.97C324.9 72.53 321.1 71.47 317.53 72.03C306.79 73.71 295.98 74.76 285.31 76.81C279.1 78.01 272.9 78.94 266.69 80.19C263.84 80.76 261.13 82.12 258.31 82.81C235.77 88.38 212.72 97.91 193.03 110.53C149.19 138.63 117.39 179.6 98.81 228.31C94.26 240.25 89.25 252.29 86.19 264.69C81.78 282.53 77.86 300.45 75.03 318.53C74.25 323.52 73.81 328.56 73.03 333.53C72.68 335.8 73.32 338.2 72.97 340.47C72.24 345.11 71.76 349.89 71.03 354.53C70.47 358.1 71.53 361.9 70.97 365.47C69.59 374.3 70.05 383.43 70 392.5C69.98 395.56 68.57 398.43 69.03 401.47C69.25 402.9 69.87 404.02 70 405.5C70.77 414.01 68.71 423.03 70.03 431.47C70.91 437.09 71.09 442.91 71.97 448.53C72.38 451.13 71.62 453.87 72.03 456.47C74.31 471.04 75.39 485.8 78.19 500.31C87.26 547.44 103.81 593.76 132.47 633.03C135.14 636.69 137.86 640.31 140.53 643.97C142.19 646.24 144.81 647.76 146.47 650.03C150.02 654.9 154.7 660.19 159.5 664C170.55 672.78 181.09 681.81 193.03 689.47C213.51 702.59 239.24 713.03 262.69 718.81C274.81 721.8 287.25 724.04 299.53 725.97C304.47 726.74 309.53 726.26 314.47 727.03C315.57 727.2 316.43 727.8 317.53 727.97C321.1 728.53 324.9 727.47 328.47 728.03C341.2 730.03 359.8 730.03 372.53 728.03C376.43 727.42 380.57 728.58 384.47 727.97C392.74 726.67 401.17 726.27 409.47 724.97C440.13 720.17 472.24 710.6 498.97 693.47C533.08 671.6 562.16 641.73 576.81 603.31C581.35 591.4 583.03 578.85 584.97 566.47C585.51 562.99 585 559.02 585 555.5C585 544.17 584 533.63 581.81 522.69C581.24 519.84 579.88 517.13 579.19 514.31C575.87 500.89 568.56 488.12 560.47 477.03C550.56 463.45 536.5 452.78 522.5 444C521.07 448.8 520.75 453.43 519.81 458.31C518.14 466.99 515.94 475.68 513.81 484.31C509.8 500.58 498.25 527.28 488.47 540.97C485.84 544.65 483.13 548.32 480.47 551.97C479.36 553.49 477.64 554.51 476.53 556.03C472.48 561.58 466.96 567.66 461.5 572C452.07 579.49 442.55 585.44 432.34 591.84C430.36 593.09 428.13 593.67 426 594.5C423.69 595.4 421.63 596.93 419.31 597.81C409.68 601.48 399.68 604.19 389.69 606.19C350.11 614.1 315.55 611.25 277.69 596.81C262.41 590.99 249.02 580.95 236.5 571C226.43 563 217.87 550.06 211.16 539.34C201.21 523.49 196 498.78 196 480.5C196 474.73 195.14 468.22 196.03 462.53C197.12 455.56 198.48 448.59 200.19 441.69C209.2 405.17 243.78 370.98 278.31 357.81C284.75 355.36 290.97 351.85 297.69 350.19C307.6 347.74 317.48 344.61 327.53 343.03C332.2 342.3 336.89 341.76 341.53 341.03C344.13 340.62 346.87 341.38 349.47 340.97C358.03 339.63 365.2 340.75 373.5 340C378.98 339.5 384.78 338.14 390.47 339.03C391.9 339.26 393.02 339.87 394.5 340C400.72 340.57 407.3 339.07 413.47 340.03C426.43 342.06 439.62 342.42 452.5 345C453.49 337.69 447.04 320.79 444.19 313.31C441.04 305.07 436.65 297.13 431.47 290.03C430.36 288.51 428.64 287.49 427.53 285.97C426.24 284.2 425.29 282.42 423.5 281C409.26 269.69 393.52 261.98 375.47 259.03C370.54 258.22 365.47 258.74 360.53 257.97C353.96 256.94 348.04 256.94 341.47 257.97C338.87 258.38 336.13 257.62 333.53 258.03C328.28 258.85 322.88 259.91 317.69 261.19C304.43 264.46 291.1 271.58 280.5 280C272.95 286 268.14 294.36 261.5 301C242.67 288.17 223.83 275.33 205 262.5C205.8 258.52 208.3 256.28 210.47 252.97C215.43 245.39 222.48 237.58 229.5 232C234.81 227.79 239.4 222.64 245.03 218.53C260.03 207.59 279.58 197.65 297.69 193.19C308.28 190.57 318.82 188.71 329.53 187.03C332.45 186.57 335.55 187.43 338.47 186.97C346.77 185.67 355.23 185.67 363.53 186.97C366.78 187.48 370.22 186.52 373.47 187.03C377.14 187.61 380.86 188.37 384.53 188.97C409.76 193.1 434.91 201.16 455.97 216.53C493.42 243.86 511.37 283.2 520.19 327.31C521.59 334.34 522.86 341.44 523.97 348.53C524.38 351.13 523.62 353.87 524.03 356.47C524.52 359.58 525 362.23 525 365.5C528.11 367.92 532.7 369.34 536.34 371.16C544.73 375.35 553.12 379.5 560.97 384.53C586.36 400.81 609.14 422.56 625.47 448.03C636.95 465.94 645.05 486.63 649.19 507.31C649.88 510.78 651.15 514.22 651.81 517.69C652.81 522.89 653.15 528.32 653.97 533.53C654.43 536.45 653.57 539.55 654.03 542.47C655.09 549.24 656.06 557.49 654.97 564.47C653.94 571.06 654 577.86 652.97 584.47C650.92 597.56 647.51 610.51 643.81 623.31C642.7 627.18 640.62 630.92 639.19 634.69C634.31 647.49 627.89 659.55 620.53 671.03C600.89 701.67 571.65 730.8 540.97 750.47C506.53 772.54 467.98 786.17 428.31 793.81C414.82 796.41 401 796.85 387.47 798.97C383.12 799.65 377.84 797.82 374 799.83C358.33 799.83 342.67 799.83 327 799.83C323.16 797.82 317.88 799.65 313.53 798.97C303.89 797.46 294.1 796.54 284.47 795.03C282.89 794.78 281.28 795.12 279.69 794.81C247.09 788.54 214.57 780.27 184.34 765.16C179.53 762.75 174.21 760.7 169.66 757.84C160.45 752.07 150.82 746.88 142.03 740.47C133.59 734.31 125.67 727.49 117.5 721C114.07 718.28 111.1 714.6 108 711.5C100.77 704.27 93.43 697.21 87.47 689.03C86.36 687.51 84.64 686.49 83.53 684.97C77.51 676.71 71.06 668.6 65.53 659.97C45.01 627.95 28.9 591.5 19.81 554.69C18.13 547.86 15.56 541.2 14.19 534.31C11.27 519.71 8.33 505.14 6.03 490.47C4.78 482.5 4.28 474.42 3.03 466.47C2.62 463.87 3.38 461.13 2.97 458.53C2.8 457.43 2.2 456.57 2.03 455.47C1.57 452.55 2.43 449.45 1.97 446.53C1.69 444.73 1.06 443.4 1 441.5C0.86 437.07 2.16 430.81 0.17 427C0.17 409 0.17 391 0.17 373C2.16 369.19 0.86 362.93 1 358.5C1.06 356.6 1.69 355.27 1.97 353.47C2.43 350.55 1.57 347.45 2.03 344.53C2.2 343.43 2.8 342.57 2.97 341.47C3.38 338.87 2.62 336.13 3.03 333.53C4.28 325.58 4.78 317.5 6.03 309.53C8.33 294.86 11.27 280.29 14.19 265.69C15.56 258.8 18.13 252.14 19.81 245.31C28.9 208.5 45.01 172.05 65.53 140.03C71.06 131.4 77.51 123.29 83.53 115.03C84.64 113.51 86.36 112.49 87.47 110.97C93.43 102.79 100.77 95.73 108 88.5C111.1 85.4 114.07 81.72 117.5 79C125.67 72.51 133.59 65.69 142.03 59.53C150.82 53.12 160.45 47.93 169.66 42.16C174.21 39.3 179.53 37.25 184.34 34.84C214.57 19.73 247.09 11.46 279.69 5.19C281.28 4.88 282.89 5.22 284.47 4.97C294.1 3.46 303.89 2.54 313.53 1.03C317.88 0.35 323.16 2.18 327 0.17ZM454.5 418C451.17 416.76 447.97 416.53 444.53 415.97C436.52 414.66 428.49 413.29 420.47 412.03C417.55 411.57 414.45 412.43 411.53 411.97C400.5 410.24 388.8 411 377.5 411C352.07 411 326.4 412.32 303.34 423.84C283.73 433.65 269.62 447.15 265.97 469.47C264.51 478.36 264.92 487.75 268.19 496.31C282.63 534.2 332.64 543.5 367.53 538.03C368.82 537.83 370.18 538.17 371.47 537.97C381 536.48 393.99 533.08 402.34 527.84C407.07 524.88 411.49 521.74 415.97 518.47C419.34 516.01 422.14 512.31 424.53 509.03C426.34 506.55 428.68 504.47 430.47 501.97C441.29 486.82 446.64 467.44 450.19 449.69C451.06 445.3 452.27 440.9 452.97 436.47C453.22 434.85 452.78 433.15 453.03 431.53C453.7 427.26 455.06 422.18 454.5 418Z" fill="#e9aa02" fill-rule="evenodd" stroke="#e9aa02" stroke-width="0.25" stroke-linejoin="round"/>
</svg>