<?xml version="1.0" encoding="UTF-8"?>
<svg id="Layer_2" data-name="Layer 2" xmlns="http://www.w3.org/2000/svg" viewBox="0 0 279.29 279.29">
  <defs>
    <style>
      .cls-1, .cls-2 {
        fill: #fff;
      }

      .cls-2 {
        stroke: #013333;
        stroke-miterlimit: 10;
        stroke-width: 5px;
      }

      .cls-3 {
        fill: #013333;
      }
    </style>
  </defs>
  <g id="SAJ">
    <g>
      <circle class="cls-1" cx="139.64" cy="139.64" r="139.64"/>
      <circle class="cls-2" cx="139.64" cy="139.64" r="132.77"/>
      <g>
        <path class="cls-3" d="M203.18,73.19c7.32,7.32,13.43,15.86,18,25.28,2.83,1.24,5.25,2.19,7.17,2.84l-6.29-.99c5.41,11.8,8.42,24.93,8.42,38.76,0,1.25-.03,2.5-.07,3.75,.53-.24,1.1-.45,1.69-.64,2.1-.67,4.53-1.05,6.61-1.16,.01-.65,.02-1.3,.02-1.95,0-28.01-11.35-53.36-29.71-71.72-16.75-16.75-39.34-27.67-64.46-29.45,2.14,3.12,4.44,6.13,6.85,9.05,20.08,3.05,38.06,12.51,51.78,26.23Z"/>
        <path class="cls-3" d="M246.97,186.14c-.65,.89-2.57,4.61-4.92,7.18-3.63,3.97-6.21,6.55-9.44,8.08,3.8-11.91,9.55-42.62,14.17-49.42,3.4-5.01-11.14-8.08-13.56-4.12-.48,.73-.89,2.34-1.37,4.6-1.61-2.42-4.84-4.03-8.47-4.03-5.49,0-15.58,3.07-19.69,20.36-.97,4.09-1.18,7.67-.83,10.77-1.72,2.31-3.84,4.45-5.95,4.45-5.25,0-.16-14.69,.73-17.92,2.58-8.96,2.42-19.05-6.29-19.05-5.17,0-11.38,7.67-16.22,16.79,1.78-5.49,3.71-9.76,5.08-11.78,3.39-5-10.25-7.34-13.56-4.12-1.37,1.45-6.38,15.09-7.59,27.03-.17,1.64-.23,3.22-.23,4.76-1.7,2.24-3.76,4.28-5.82,4.28-7.67,0,.73-26.15,4.68-31.96,3.39-5-10.33-7.34-13.56-4.12-1.21,1.21-4.84,11.06-6.62,21.22-1.53,6.13-4.84,14.85-8.47,14.85-7.67,0,.73-26.15,4.68-31.96,3.39-5-10.33-7.34-13.56-4.12-1.63,1.63-7.62,19.04-7.56,31.73-1.71,2.27-3.79,4.35-5.84,4.35-7.67,0,.73-26.15,4.6-31.96,3.39-5-10.25-7.34-13.56-4.12-.48,.56-1.53,2.91-2.74,6.29-.81-3.23-4.76-5.73-9.28-5.73-5.49,0-15.58,3.07-19.69,20.34-.51,2.14-.78,4.12-.91,5.99-.26,.05-.54,.08-.75,.34-.5,.65-1.7,2.64-3.26,4.61-2.07-8.78-15.64-21.99-12.43-26.03,2.17-2.8,7.41-.24,10.28,3.27,1.53,1.85,4.73,2.47,7.22,1.42,2.43-1,3.45-3.22,2.3-5.07-2.24-3.65-8.24-7.3-15.07-7.3-8.18,0-15.46,5.41-15.46,12.85,0,8.16,11.94,19.2,11.94,26.08,0,1.94-.32,3.7-3.19,3.7-3.58,0-7.92-4.6-9.07-8.06-1.02-3.27-6.39-4.65-10.03-2.61-2.3,1.33-3.19,3.7-1.92,5.69,3.13,4.93,10.99,9.25,18.65,9.25,8.33,0,13.9-3.21,16.06-7.38,2.13-2.22,3.74-4.41,4.82-5.95,1,8.66,6.55,13.33,13.32,13.33,5.17,0,9.36-2.5,12.35-7.1,1.05,4.28,3.47,7.1,7.91,7.1,5.8,0,10.69-4.38,14.15-8.61,.84,5.05,3.18,8.61,8.12,8.61,7.1,0,12.35-3.95,15.74-8.88,.81,5.25,3.23,8.88,8.23,8.88,5.77,0,10.61-4.28,14.06-8.46,.82,4.98,3.18,8.46,8.13,8.46,1.05,0,2.74-.65,2.82-2.42,.08-1.94,.24-4.03,.48-5.97,2.42-11.46,9.44-25.9,12.91-25.9,1.78,0,1.29,2.98,.65,5.81-3.15,12.83-6.21,28.49,4.92,28.49,6.11,0,11.21-4.88,14.67-9.29,2.04,6.06,6.82,9.29,12.44,9.29,3.39,0,6.29-1.05,8.72-3.08,.12,1.61-4.29,14.94-5.05,15.49-6.29,1.13-11.19,3.65-14.61,7.67-3.45,4.05-4.27,13.6,7.99,12.19,7.99-.92,13.48-8.55,17.43-18.4,5.08-1.86,10.56-7.21,13.4-10.75,2.48-3.09,4.2-6.07,4.84-7.03,1.58-2.38-1.02-4.16-1.94-2.91Zm-156.68-14c-2.18,7.18-6.38,12.35-9.44,11.38-3.07-.89-3.71-7.51-1.53-14.69,2.1-7.18,6.38-12.27,9.44-11.38,2.99,.89,3.71,7.51,1.53,14.69Zm120.44,47.19c-6.7,0,.65-8.15,7.67-9.44-2.1,5.65-4.6,9.44-7.67,9.44Zm17.07-47.23c-2.18,7.2-6.37,12.37-9.44,11.41-2.99-.9-3.71-7.52-1.53-14.71,2.18-7.2,6.37-12.28,9.44-11.39,3.07,.89,3.71,7.51,1.53,14.7Z"/>
        <path class="cls-3" d="M138.21,37.6l-.85-1.71-.89,1.71c-9.89,20.2-25.52,35.88-46.78,48.78,32.64-10.82,62.66-10.29,95.3,0-21.26-12.9-36.89-28.57-46.78-48.78Z"/>
        <path class="cls-3" d="M54.71,98.83l12.04-2.43-5.36,4.49c33.65-16.52,60.76-37.25,74.96-66.27l1-1.93,.96,1.93c14.2,29.02,41.31,49.75,74.96,66.27l-4.02-4.6,10.59,1.67c-14.65-4.96-62.53-29.47-82.52-68.37-18.35,31.96-40.73,49.33-82.63,69.25Z"/>
        <path class="cls-3" d="M128.82,133.16c-1.27-2.53-2.01-5.67-2.01-9.21,0-3.85,.75-7.1,2.01-9.68v-6.6h-9.81v31.39h9.81v-5.9Z"/>
        <path class="cls-3" d="M157.73,144.03v-7.96c-1.24-1.66-1.93-3.76-1.93-6.04,0-2.55,.7-4.65,1.93-6.34v-6.26c0-3.35,.11-6.69,.22-9.76h-9.09l-.33,3.4h-.11c-1.62-2.84-4.24-4.01-7.36-4.01-6.47,0-12.43,6.02-12.43,16.89,0,9.2,4.96,15.72,11.43,15.72,3.4,0,6.02-1.39,7.69-3.9h.17v7.11c3.24-.99,6.51-.36,9.81,1.15Zm-14.16-12.16c-3.12,0-5.07-3.18-5.07-8.42s1.73-8.47,5.13-8.47c2.9,0,4.29,2.84,4.29,5.18v6.36c0,3.4-1.95,5.35-4.35,5.35Z"/>
        <path class="cls-3" d="M212.35,139.06v-18.45c0-8.7-3.46-13.55-9.76-13.55-2.51,0-5.52,.89-7.97,4.07h-.11v-17h-3.47c-34.33-13.66-69.47-15.13-110.49-.41,39.23-11.55,76.16-10.61,110.36,.41h-6.22v44.93h9.81v-18.9c0-4.4,2.9-5.02,4.13-5.02,2.9,0,3.9,2.56,3.9,6.08v17.84h9.81Z"/>
        <path class="cls-3" d="M167.03,139.67c3.23,0,6.19-1.11,8.08-3.62h.17l.56,3.01h7.1v-25.45c-1.6-3.81-5.04-6.55-11.73-6.55-5.41,0-9.48,1.56-11.48,2.68l1.78,6.35c2.01-1.23,4.79-2.12,7.75-2.12,3.96,0,5.02,1.73,5.02,4.13-9.25,.06-16.67,3.62-16.67,11.93,0,5.3,3.74,9.64,9.42,9.64Zm7.58-15.44v4.07c0,2.95-2.23,4.4-4.24,4.4-1.73,0-3.29-1.11-3.29-3.68,0-3.62,3.46-4.79,7.53-4.79Z"/>
        <path class="cls-3" d="M115.96,147.21s.05,.12,.07,.09c.45-.73,1.11-.82,1.11-1.06v-28.81c0-3.35,.11-6.69,.22-9.76h-9.09l-.33,3.4h-.11c-1.62-2.84-4.24-4.01-7.36-4.01-6.47,0-12.43,6.02-12.43,16.89,0,9.2,4.96,15.72,11.43,15.72,3.4,0,6.02-1.39,7.69-3.9h.17v7.51c3.31-.1,6.59,1.48,8.63,3.94Zm-12.96-15.34c-3.12,0-5.07-3.18-5.07-8.42s1.73-8.47,5.13-8.47c2.9,0,4.29,2.84,4.29,5.18v6.36c0,3.4-1.95,5.35-4.35,5.35Z"/>
        <path class="cls-3" d="M123.91,104.11c2.84,0,5.02-2.01,5.02-4.96s-2.06-5.02-5.02-5.02-5.02,2.06-5.02,5.02,2.06,4.96,5.02,4.96Z"/>
        <path class="cls-3" d="M62.22,130.03c0,5.3,3.74,9.64,9.42,9.64,3.23,0,6.19-1.11,8.08-3.62h.17l.56,3.01h8.81c-.29-1.39-.42-3.24-.48-5.23-1.49-2.63-2.37-6.02-2.37-9.88,0-3.47,.61-6.44,1.65-8.89-1.31-4.55-4.73-8.01-12.24-8.01-5.41,0-9.48,1.56-11.48,2.68l1.78,6.35c2.01-1.23,4.79-2.12,7.75-2.12,3.96,0,5.02,1.73,5.02,4.13-9.25,.06-16.67,3.62-16.67,11.93Zm17-5.8v4.07c0,2.95-2.23,4.4-4.24,4.4-1.73,0-3.29-1.11-3.29-3.68,0-3.62,3.46-4.79,7.53-4.79Z"/>
        <path class="cls-3" d="M44.2,143.39c-.07-1.43-.1-2.87-.1-4.32,0-13.54,2.89-26.4,8.08-38l-5.95,1.2c2.37-1.13,4.69-2.25,6.95-3.36,4.59-9.6,10.78-18.29,18.21-25.73,13.73-13.73,31.73-23.2,51.84-26.24,2.28-2.88,4.48-5.89,6.61-9.03-25.04,1.82-47.56,12.72-64.28,29.44-18.35,18.35-29.71,43.71-29.71,71.72,0,3.66,.2,7.28,.57,10.85,1.81-2.94,4.46-5.06,7.77-6.53Z"/>
        <path class="cls-3" d="M109.15,233.05c-.76-.22-1.49-.2-1.96-.06l.02,.86c.43-.13,.99-.14,1.49,.01,1.14,.33,.89,1.17,.77,1.59-1.94-.56-3.37-.22-3.77,1.18-.25,.87,.12,1.83,1.18,2.14,.71,.21,1.36,.04,1.8-.31h.03s-.11,.69-.11,.69l1.08,.31c.04-.39,.17-.89,.31-1.37l.62-2.14c.35-1.2,.21-2.43-1.46-2.92Zm-.16,4.15c-.19,.66-.87,.99-1.52,.81-.44-.13-.75-.52-.57-1.15,.29-1.01,1.42-.87,2.36-.6l-.27,.93Z"/>
        <path class="cls-3" d="M115.41,234.62c-.62-.15-1.34,0-1.86,.51h-.02s.82-3.39,.82-3.39l-1.21-.29-2.02,8.33,1.21,.29,.85-3.5c.21-.86,.96-1.2,1.55-1.05,.81,.2,.93,.95,.73,1.77l-.81,3.35,1.21,.29,.84-3.46c.44-1.81-.42-2.63-1.28-2.84Z"/>
        <path class="cls-3" d="M105.73,229.37l-1.09,3.16h-.02c-.1-.52-.5-1.02-1.22-1.26-1.24-.43-2.69,.27-3.35,2.16-.59,1.72-.02,3.17,1.24,3.61,.79,.27,1.54,.07,2.03-.4h.03s-.24,.9-.24,.9l1.03,.36c.11-.39,.3-.99,.47-1.5l2.29-6.62-1.17-.41Zm-2.01,5.82c-.27,.78-.99,1.27-1.75,1.01-.89-.31-1.08-1.31-.71-2.41,.38-1.1,1.18-1.82,2.08-1.51,.66,.23,1.05,.96,.73,1.87l-.36,1.03Z"/>
        <path class="cls-3" d="M99.05,229.81l-1.38,3.37c-.34,.82-1.12,.99-1.64,.77-.75-.31-.76-1.04-.38-1.98l1.25-3.05-1.15-.47-1.33,3.24c-.71,1.74-.13,2.66,.81,3.04,.88,.36,1.63,.06,2.01-.23h.03s-.27,.83-.27,.83l1.01,.41c.16-.44,.34-.97,.59-1.58l1.59-3.89-1.15-.47Z"/>
        <path class="cls-3" d="M93.8,225.04l-2.58,2.77c-.72,.79-1.34,1.53-1.89,2.24h-.03c.19-.91,.35-1.84,.49-2.88l.46-3.76-1.4-.64-3.93,7.21,1.05,.48,1.58-2.99c.54-1.01,1.14-2.16,1.58-3.08h.03c-.23,.99-.41,2.08-.56,3.19l-.5,3.77,.85,.39,2.66-2.86c.74-.8,1.47-1.62,2.1-2.39h.03c-.43,.93-.9,2.1-1.32,3.14l-1.27,3.2,1.09,.5,2.97-7.65-1.41-.65Z"/>
        <path class="cls-3" d="M154.57,237.88c-.21-1.23-.88-2.28-2.59-1.98-.78,.14-1.43,.48-1.79,.81l.39,.77c.33-.31,.83-.56,1.34-.65,1.17-.2,1.32,.66,1.39,1.09-1.99,.35-3.12,1.28-2.87,2.72,.16,.9,.92,1.59,2,1.4,.73-.13,1.24-.56,1.48-1.07h.03s.2,.65,.2,.65l1.11-.19c-.14-.37-.24-.87-.32-1.37l-.38-2.19Zm-1.92,3.21c-.45,.08-.9-.14-1.01-.78-.18-1.03,.9-1.4,1.85-1.57l.17,.96c.12,.67-.34,1.28-1.01,1.39Z"/>
        <path class="cls-3" d="M168.64,234.76c-.78-.06-1.1-.17-1.23-.56-.13-.37,.05-.77,.58-.95,.46-.15,.9-.11,1.17-.04l-.02-.94c-.36-.07-.89-.06-1.44,.12-1.18,.4-1.69,1.39-1.37,2.32,.22,.65,.84,1.06,1.97,1.12,.76,.06,1.08,.21,1.22,.64,.14,.43-.06,.83-.69,1.04-.48,.16-1.06,.13-1.4,.06l.03,.96c.45,.1,1.06,.06,1.65-.14,1.27-.43,1.87-1.34,1.51-2.42-.27-.81-.93-1.15-1.98-1.22Z"/>
        <path class="cls-3" d="M173.76,233.98c.02,.41,.05,.86,.08,1.21h-.03c-.19-.29-.45-.67-.68-1l-2.07-2.8-1.29,.43,3.65,4.5c.09,.09,.12,.16,.14,.22,.05,.15,0,1.43-1.07,2.28l.64,.89c.25-.15,.7-.52,1.05-1.16,.45-.87,.57-2.06,.61-4.12l.04-4.32-1.24,.42,.16,3.44Z"/>
        <path class="cls-3" d="M116.5,242.48l.86,.08c.53-.58,1.3-1.79,1.81-2.78l-1.35-.14c-.31,.9-.87,2.1-1.32,2.84Z"/>
        <path class="cls-3" d="M158.33,234.75c-.63,.14-1.2,.6-1.45,1.27h-.02s-.75-3.4-.75-3.4l-1.21,.27,1.85,8.37,1.21-.27-.78-3.52c-.19-.87,.34-1.5,.93-1.63,.81-.18,1.25,.45,1.43,1.27l.74,3.36,1.21-.27-.77-3.48c-.4-1.82-1.53-2.18-2.4-1.99Z"/>
        <path class="cls-3" d="M179.85,230.4c-.51-1.14-1.41-2-2.99-1.3-.72,.32-1.27,.81-1.54,1.22l.57,.65c.24-.38,.67-.74,1.15-.95,1.09-.48,1.44,.32,1.62,.72-1.85,.82-2.72,2-2.13,3.34,.37,.83,1.27,1.32,2.28,.88,.67-.3,1.06-.84,1.18-1.4h.03s.35,.58,.35,.58l1.03-.45c-.22-.32-.44-.79-.64-1.25l-.9-2.03Zm-1.09,3.58c-.42,.19-.91,.09-1.17-.51-.42-.96,.53-1.58,1.42-1.97l.39,.89c.28,.63-.02,1.32-.64,1.59Z"/>
        <rect class="cls-3" x="187.08" y="224.48" width="1.24" height="5.89" transform="translate(-87.85 122.43) rotate(-29.61)"/>
        <path class="cls-3" d="M186.07,223.1c-.21-.36-.61-.49-.98-.28-.37,.21-.48,.63-.27,.99,.2,.34,.61,.48,.98,.27,.39-.22,.47-.64,.28-.98Z"/>
        <path class="cls-3" d="M183.17,227.62c.13-.06,.24-.09,.35-.12l-.48-1.09c-.11,.02-.19,.05-.3,.1-.59,.26-.97,.93-.91,1.72l-.04,.02-.48-.97-.99,.44c.25,.49,.49,1,.76,1.63l1.65,3.75,1.13-.5-1.26-2.86c-.41-.94-.21-1.78,.55-2.11Z"/>
        <path class="cls-3" d="M182.91,223.87c.28,.89,.53,2.11,.62,2.96l.64-.41c.06-.76-.03-2.12-.22-3.19l-1.04,.64Z"/>
        <path class="cls-3" d="M162.73,241.47l.82-.27c.25-.75,.49-2.16,.56-3.27l-1.29,.41c.07,.95,.03,2.27-.08,3.13Z"/>
        <path class="cls-3" d="M143.08,239.18c-.03-1.25-.53-2.38-2.26-2.35-.79,.02-1.48,.26-1.89,.53l.27,.82c.37-.25,.9-.42,1.42-.44,1.19-.02,1.2,.85,1.21,1.29-2.02,.04-3.28,.79-3.25,2.26,.02,.91,.67,1.71,1.77,1.69,.74-.02,1.31-.37,1.63-.84h.03s.1,.68,.1,.68l1.12-.02c-.08-.38-.1-.9-.11-1.4l-.05-2.22Zm-2.38,2.88c-.46,0-.87-.27-.89-.92-.02-1.05,1.1-1.25,2.07-1.27l.02,.97c.01,.68-.53,1.21-1.2,1.22Z"/>
        <path class="cls-3" d="M135.88,236.91c-.84-.03-1.44,.37-1.86,1.01h-.02c-.22-.67-.77-1.11-1.52-1.14-.9-.03-1.45,.45-1.76,.93h-.03s-.03-.87-.03-.87l-1.07-.04c0,.5,0,1-.02,1.66l-.16,4.23,1.22,.05,.14-3.57c.04-.93,.69-1.41,1.24-1.39,.72,.03,1,.67,.97,1.49l-.14,3.55,1.22,.05,.14-3.63c.03-.86,.63-1.35,1.2-1.32,.75,.03,1.04,.69,1.01,1.68l-.13,3.37,1.22,.05,.14-3.56c.07-1.86-.87-2.49-1.74-2.53Z"/>
        <path class="cls-3" d="M125.03,234.03l-3.19,7.95,1.27,.11,.91-2.34,2.49,.21,.53,2.46,1.3,.11-1.8-8.37-1.51-.13Zm-.74,4.79l.83-2.09c.18-.49,.36-1.08,.52-1.57h.02c.07,.51,.16,1.1,.27,1.65l.46,2.19-2.1-.18Z"/>
        <path class="cls-3" d="M147.22,236.44c-.89,.06-1.47,.6-1.71,1.12h-.03s-.12-.87-.12-.87l-1.08,.07c.05,.5,.11,1,.15,1.65l.28,4.22,1.24-.08-.24-3.54c-.06-.94,.55-1.48,1.16-1.52,.84-.06,1.17,.63,1.22,1.46l.23,3.45,1.24-.08-.24-3.6c-.12-1.81-1.19-2.34-2.1-2.28Z"/>
        <path class="cls-3" d="M71.41,204.56c-3.69-3.69-7.07-7.69-10.11-11.96-2.1,1.83-4.65,3.21-7.21,3.97,3.44,4.93,7.3,9.54,11.53,13.77,2.41,2.41,4.93,4.69,7.57,6.85-.51-3.27,.37-6.08,2.77-8.37-1.57-1.37-3.08-2.79-4.55-4.26Z"/>
        <path class="cls-3" d="M124.03,197.49v22.13h2.3v-9.27c0-2.77,2.21-4.23,3.98-4.23,2.6,0,3.49,2.13,3.49,4.59v8.91h2.3v-9.18c0-5.12-3.18-6.25-5.03-6.25s-3.68,1.02-4.68,2.68h-.06v-9.38h-2.3Z"/>
        <path class="cls-3" d="M194.36,199.84l-4.81,1.36v2.85h-1.91v3.51h1.91v6.47c0,1.77,.08,5.86,4.87,5.86,1.3,0,2.38-.17,2.99-.36l-.03-3.76c-.42,.11-.72,.14-1.27,.14-1.16,0-1.74-.66-1.74-2.49v-5.86h3.24v-3.51h-3.24v-4.2Z"/>
        <path class="cls-3" d="M137.16,222.44l.42,3.79c7.3,0,7.74-4.98,7.74-8.22v-13.97h-4.87v12.97c0,3.98-.3,5.09-3.29,5.42Z"/>
        <path class="cls-3" d="M119.47,210.19c0-2.99-1.11-6-5.37-6-1.69,0-3.37,.47-4.59,1.27l.55,1.58c1.02-.72,2.38-1.08,3.68-1.08,3.43,0,3.43,2.88,3.43,4.15-5.59-.03-8.74,1.94-8.74,5.56,0,2.19,1.52,4.29,4.4,4.29,2.13,0,3.68-1.08,4.45-2.27h.08l.22,1.94h2.1c-.19-1.05-.22-2.35-.22-3.6v-5.84Zm-2.27,4.45c0,1.83-1.58,3.54-3.82,3.54-1.38,0-2.6-.86-2.6-2.79,0-3.18,3.57-3.6,6.42-3.6v2.85Z"/>
        <path class="cls-3" d="M85.83,217.68h.08l.22,1.94h2.1c-.19-1.05-.22-2.35-.22-3.6v-5.84c0-2.99-1.11-6-5.37-6-1.69,0-3.37,.47-4.59,1.27l.55,1.58c1.02-.72,2.38-1.08,3.68-1.08,3.43,0,3.43,2.88,3.43,4.15-5.59-.03-8.74,1.94-8.74,5.56,0,2.19,1.52,4.29,4.4,4.29,2.13,0,3.68-1.08,4.45-2.27Zm-3.9,.5c-1.38,0-2.6-.86-2.6-2.79,0-3.18,3.57-3.6,6.42-3.6v2.85c0,1.83-1.58,3.54-3.82,3.54Z"/>
        <path class="cls-3" d="M169.7,218.01v-13.97h-4.87v12.97c0,3.98-.3,5.09-3.29,5.42l.41,3.79c7.3,0,7.75-4.98,7.75-8.22Z"/>
        <path class="cls-3" d="M167.27,202.27c1.44,0,2.49-.97,2.49-2.46s-1-2.49-2.46-2.49-2.52,1.02-2.52,2.49,1.02,2.46,2.49,2.46Z"/>
        <path class="cls-3" d="M147.84,215.14c0,2.63,1.85,4.79,4.67,4.79,1.6,0,3.07-.55,4.01-1.8h.08l.28,1.49h4.37c-.19-.94-.25-2.3-.25-3.68v-5.48c0-3.46-1.27-6.72-6.42-6.72-2.68,0-4.7,.77-5.7,1.33l.89,3.15c1-.61,2.38-1.05,3.84-1.05,1.96,0,2.49,.86,2.49,2.05-4.59,.03-8.27,1.8-8.27,5.92Zm8.44-2.88v2.02c0,1.47-1.11,2.18-2.1,2.18-.86,0-1.63-.55-1.63-1.83,0-1.8,1.72-2.38,3.73-2.38Z"/>
        <path class="cls-3" d="M172.22,215.14c0,2.63,1.85,4.79,4.68,4.79,1.6,0,3.07-.55,4.01-1.8h.08l.28,1.49h4.37c-.19-.94-.25-2.3-.25-3.68v-5.48c0-3.46-1.27-6.72-6.42-6.72-2.68,0-4.7,.77-5.7,1.33l.89,3.15c1-.61,2.38-1.05,3.84-1.05,1.96,0,2.49,.86,2.49,2.05-4.59,.03-8.27,1.8-8.27,5.92Zm8.44-2.88v2.02c0,1.47-1.11,2.18-2.1,2.18-.86,0-1.63-.55-1.63-1.83,0-1.8,1.72-2.38,3.73-2.38Z"/>
        <path class="cls-3" d="M142.89,202.27c1.44,0,2.49-.97,2.49-2.46s-1-2.49-2.46-2.49-2.52,1.02-2.52,2.49,1.02,2.46,2.49,2.46Z"/>
        <path class="cls-3" d="M92.57,197.49v18.39c0,1.22-.06,2.74-.11,3.73h1.99l.14-2.49h.08c1.08,1.94,2.68,2.82,4.87,2.82,3.13,0,6.47-2.57,6.47-8.05,0-4.65-2.52-7.72-6.09-7.72-2.35,0-4.07,1.05-5.01,2.79h-.06v-9.49h-2.3Zm6.61,8.57c2.93,0,4.48,2.77,4.48,5.92,0,3.57-1.63,6.08-4.56,6.08-2.54,0-4.23-2.1-4.23-4.34v-2.99c0-2.21,1.69-4.67,4.31-4.67Z"/>
      </g>
    </g>
  </g>
</svg>